<svg width="30" height="36" fill="none" xmlns="http://www.w3.org/2000/svg"><path fill-rule="evenodd" clip-rule="evenodd" d="M15 2.18c.237 0 .76.613.964.773 1.24.972 1.372 1.264 3.21 2.203.832.425 1.54.742 2.49 1.04.91.286 1.867.48 2.934.657 1.25.206 3.206-.228 3.267 2.074l-.005 2.748c.005.39.07.447.074.838l-.14 3.518c-.171 3.508-.936 7.193-2.626 10.042l-1.087 1.63c-.927 1.24-1.932 2.186-3.145 3.115-1.26.965-2.08 1.355-3.392 2.017-.363.184-2.218 1.024-2.543 1.024-.735 0-3.87-1.66-4.829-2.275l-2.96-2.387-.86-.949c-.54-.58-1.048-1.379-1.476-2.077-1.352-2.204-2.367-5.827-2.533-8.38-.036-.547-.13-1.009-.134-1.621l-.07-1.757c.004-.6-.068-1.084-.07-1.758l.07-1.757-.003-1.83c0-.614.105-1.084.397-1.423.748-.867 1.445-.577 2.811-.782 3.341-.5 5.545-1.45 8.174-3.457C13.83 3.168 14.792 2.18 15 2.18zM.007 10.195c0 4.574-.094 7.535.99 11.996.703 2.891 1.781 4.775 3.393 7.009 1.202 1.666 3.736 3.784 5.59 4.761.5.264.956.522 1.49.797C12.5 35.29 14.084 36 15.276 36c.481 0 2.852-1.038 3.302-1.265a24.985 24.985 0 002.888-1.688c4.37-2.977 7.073-7.507 7.96-12.746.643-3.8.569-6.255.569-10.106 0-.253.01-.525.002-.775-.018-.629-.115-1.547-.301-2.083-.393-1.13-1.3-1.915-2.373-2.285-.846-.291-3.068-.243-5.23-.983l-2.187-.927c-1.009-.554-1.881-1.222-2.753-1.967C16.264.415 16.138 0 14.794 0c-1.088 0-2.173 1.598-3.71 2.536-.307.188-.61.39-.944.58l-2.18.936c-2.869.978-4.688.431-6.3 1.505C.301 6.46.086 7.82.005 9.35c-.014.264 0 .575 0 .844z" fill="#fff"/><path fill-rule="evenodd" clip-rule="evenodd" d="M15.345 24.82c-1.261 0-2.087-.08-3.211-.655-.774-.396-1.284-.74-1.862-1.33-1.03-1.053-1.943-2.852-1.943-4.483 0-2.13.539-3.743 1.977-5.222 2.545-2.617 6.835-2.61 9.424.036 2.588 2.646 2.594 7.031.034 9.633-.59.6-1.066.939-1.851 1.342-.626.322-1.664.68-2.568.68zM6.197 18c0 4.926 3.985 9 8.804 9 7.683 0 11.816-9.62 6.207-15.346-2.699-2.755-7.191-3.54-10.544-1.463l-1.305.917C7.475 12.564 6.197 15.448 6.197 18z" fill="#fff"/><path fill-rule="evenodd" clip-rule="evenodd" d="M13.419 19.336c-.245-.374-1.194-1.406-1.789-1.406-.631 0-1.804.8-.43 2.197.488.496 1.604 1.81 2.15 1.81.655 0 .712-.2 1.187-.685l4.264-4.36c.343-.348.593-.538.478-1.151-.092-.493-.485-.835-1.046-.835-.627 0-1.016.582-1.358.932l-3.456 3.498z" fill="#fff"/></svg>