<svg width="763" height="1200" fill="none" xmlns="http://www.w3.org/2000/svg"><path d="M864.68 409.737c18.299 18.299 18.299 47.961 0 66.251L550.414 790.263c-18.299 18.29-47.952 18.29-66.251 0L334.56 640.651c-18.299-18.29-18.299-47.952 0-66.242 18.29-18.299 47.952-18.299 66.242 0l116.482 116.482 281.145-281.154c18.299-18.29 47.962-18.29 66.251 0zM1199.24 600c0 331.44-268.226 599.62-599.62 599.62C268.18 1199.62 0 931.394 0 600 0 268.56 268.226.38 599.62.38c331.44 0 599.62 268.226 599.62 599.62zm-93.69 0c0-279.654-226.313-505.93-505.93-505.93C319.966 94.07 93.69 320.383 93.69 600c0 279.654 226.313 505.93 505.93 505.93 279.654 0 505.93-226.313 505.93-505.93z" fill="url(#paint0_linear_632_109)"/><defs><linearGradient id="paint0_linear_632_109" x1="599.62" y1=".38" x2="599.62" y2="1199.62" gradientUnits="userSpaceOnUse"><stop stop-color="#8EA7E1"/><stop offset="1" stop-color="#7B8AB4" stop-opacity="0"/></linearGradient></defs></svg>