<svg width="45" height="46" fill="none" xmlns="http://www.w3.org/2000/svg"><g clip-path="url(#clip0_632_188)" fill="#fff"><path d="M27.59 19l-6.762 6.386-3.244-3.338a.935.935 0 10-1.342 1.303l3.892 3.995a.952.952 0 001.323.028l7.436-7.014a.934.934 0 00.038-1.323A.957.957 0 0027.59 19z"/><path d="M22.573 9.171c-7.728 0-14.011 6.284-14.011 14.01 0 7.729 6.283 14.012 14.01 14.012 7.728 0 14.011-6.283 14.011-14.011 0-7.727-6.283-14.01-14.01-14.01zm0 26.146c-6.696 0-12.135-5.449-12.135-12.135 0-6.687 5.439-12.135 12.135-12.135 6.702 0 12.135 5.433 12.135 12.135s-5.433 12.135-12.135 12.135z"/><path d="M41.854 18.024l.31-5.561a.935.935 0 00-.517-.89l-4.951-2.505-2.504-4.951a.952.952 0 00-.89-.516l-5.572.3L23.088.834a.937.937 0 00-1.031 0l-4.642 3.067-5.561-.31a.934.934 0 00-.891.516L8.459 9.06l-4.952 2.504a.95.95 0 00-.515.89l.309 5.562-3.067 4.642a.937.937 0 000 1.032l3.058 4.65-.31 5.562a.935.935 0 00.516.891l4.952 2.504 2.503 4.952a.95.95 0 00.891.515l5.562-.31 4.642 3.067a.913.913 0 001.031 0l4.642-3.066 5.561.31a.936.936 0 00.891-.517l2.504-4.951 4.952-2.504a.951.951 0 00.516-.89l-.31-5.562 3.066-4.642a.937.937 0 000-1.032l-3.047-4.642zm-1.745 9.547a.881.881 0 00-.15.572l.29 5.261-4.678 2.363a.925.925 0 00-.413.413l-2.364 4.68-5.26-.291c-.202-.007-.4.045-.572.15l-4.39 2.898-4.388-2.898a.928.928 0 00-.516-.16h-.047l-5.26.291-2.364-4.68a.924.924 0 00-.413-.412l-4.689-2.354.291-5.26a1.03 1.03 0 00-.15-.573l-2.898-4.389 2.898-4.389a.878.878 0 00.15-.572l-.29-5.26 4.679-2.364a.924.924 0 00.412-.412l2.364-4.68 5.26.29c.202.007.4-.045.573-.15l4.389-2.897 4.389 2.897a.88.88 0 00.572.15l5.26-.29 2.364 4.68c.09.178.234.323.413.412l4.679 2.363-.29 5.261c-.008.201.044.4.15.572l2.897 4.39-2.898 4.388z"/></g><defs><clipPath id="clip0_632_188"><path fill="#fff" transform="translate(0 .68)" d="M0 0h45v45H0z"/></clipPath></defs></svg>