<svg width="45" height="46" fill="none" xmlns="http://www.w3.org/2000/svg"><g clip-path="url(#clip0_632_192)" fill="#fff"><path d="M34.985 16.229a1.318 1.318 0 00-1.064-.898l-6.145-.892L25.03 8.87a1.318 1.318 0 00-2.365 0l-2.748 5.568-6.144.892a1.318 1.318 0 00-.73 2.25l4.445 4.333-1.05 6.12a1.318 1.318 0 001.913 1.39l5.496-2.89 5.496 2.89c.193.101.404.151.613.151h.005a1.319 1.319 0 001.282-1.613l-1.037-6.048 4.446-4.334c.36-.35.489-.874.334-1.351zm-7.117 4.28c-.31.303-.452.74-.379 1.168l.715 4.17-3.744-1.97a1.319 1.319 0 00-1.227 0l-3.745 1.97.715-4.17a1.318 1.318 0 00-.379-1.167l-3.03-2.953 4.187-.609c.43-.062.8-.332.993-.72l1.872-3.795 1.873 3.794c.192.39.563.659.992.721l4.187.609-3.03 2.953z"/><path d="M23.846.592c-9.996 0-18.142 8.071-18.262 18.04L3.41 24.973c-.597 1.742-.558 3.276.107 4.207a2.058 2.058 0 001.69.879h.375v2.212a4.854 4.854 0 004.85 4.848c1.219 0 2.211.993 2.211 2.212v1.412a4.854 4.854 0 004.849 4.849h9.885a4.854 4.854 0 004.848-4.849v-5.659a18.298 18.298 0 006.915-6.244 18.185 18.185 0 002.97-9.985C42.11 8.785 33.917.592 23.846.592zm6.51 32.471a1.319 1.319 0 00-.768 1.198v6.482c0 1.22-.992 2.212-2.211 2.212h-9.885a2.214 2.214 0 01-2.212-2.212v-1.412a4.854 4.854 0 00-4.849-4.848A2.215 2.215 0 018.22 32.27v-3.53c0-.729-.59-1.32-1.318-1.32h-1.27c-.022-.293.01-.827.272-1.593l2.244-6.545c.047-.138.071-.282.071-.427 0-8.617 7.01-15.627 15.627-15.627s15.627 7.01 15.627 15.627c0 6.088-3.578 11.665-9.116 14.207z"/></g><defs><clipPath id="clip0_632_192"><path fill="#fff" transform="translate(0 .68)" d="M0 0h45v45H0z"/></clipPath></defs></svg>