<svg width="70" height="72" fill="none" xmlns="http://www.w3.org/2000/svg"><g clip-path="url(#clip0_629_20)"><path d="M35.009.84h-.018C15.693.84 0 16.76 0 36.34c0 7.765 2.467 14.962 6.663 20.806L2.301 70.335l13.453-4.362a34.349 34.349 0 0019.255 5.866C54.307 71.84 70 55.913 70 36.34 70 16.765 54.307.84 35.009.84z" fill="#4CAF50"/><path d="M55.374 50.97c-.844 2.418-4.195 4.424-6.868 5.01-1.83.394-4.218.71-12.26-2.672-10.285-4.322-16.909-14.923-17.425-15.611-.494-.688-4.156-5.613-4.156-10.708 0-5.094 2.55-7.575 3.579-8.64.844-.874 2.24-1.273 3.579-1.273.433 0 .822.022 1.172.04 1.028.044 1.544.106 2.223 1.753.844 2.063 2.9 7.157 3.145 7.681.25.524.499 1.234.149 1.921-.328.71-.617 1.026-1.133 1.629-.517.603-1.007 1.065-1.523 1.713-.472.563-1.006 1.167-.411 2.21.595 1.02 2.651 4.424 5.679 7.157 3.907 3.528 7.074 4.655 8.207 5.135.845.355 1.85.27 2.468-.395.783-.857 1.75-2.277 2.734-3.675.7-1.002 1.584-1.127 2.511-.772.945.333 5.946 2.84 6.974 3.36 1.028.523 1.706.772 1.956 1.21.245.44.245 2.504-.6 4.926z" fill="#FAFAFA"/></g><defs><clipPath id="clip0_629_20"><path fill="#fff" transform="translate(0 .84)" d="M0 0h70v71H0z"/></clipPath></defs></svg>