<svg width="30" height="36" viewBox="0 0 30 36" fill="none" xmlns="http://www.w3.org/2000/svg">
<path fill-rule="evenodd" clip-rule="evenodd" d="M15.0007 2.17966C15.2366 2.17966 15.7592 2.79317 15.9636 2.95313C17.2049 3.92477 17.3356 4.21716 19.1734 5.15622C20.0055 5.58142 20.7132 5.89845 21.6637 6.19642C22.5746 6.48198 23.5308 6.67644 24.5982 6.85278C25.8477 7.05918 27.8037 6.62501 27.8651 8.92729L27.86 11.6747C27.8647 12.0652 27.9295 12.1223 27.9342 12.5128L27.7938 16.0311C27.6226 19.539 26.8578 23.2236 25.1678 26.0732L24.0805 27.7039C23.1537 28.9424 22.1493 29.8886 20.9361 30.8176C19.6755 31.783 18.8559 32.1726 17.5445 32.8349C17.1809 33.0186 15.3257 33.8587 15.0007 33.8587C14.2663 33.8587 11.131 32.1985 10.1725 31.5841L7.2112 29.1973L6.35147 28.248C5.81156 27.6686 5.30426 26.8694 4.87579 26.1706C3.52437 23.9668 2.50926 20.3442 2.34252 17.7915C2.30674 17.2437 2.2131 16.7823 2.2092 16.17L2.13951 14.4131C2.14286 13.8137 2.07084 13.329 2.06819 12.6546L2.13859 10.8984C2.13857 10.2883 2.13577 9.67784 2.13623 9.0679C2.13667 8.45374 2.24077 7.98415 2.53285 7.64525C3.2806 6.77763 3.97816 7.06805 5.34445 6.8632C8.68501 6.36235 10.8886 5.41232 13.5179 3.40614C13.8306 3.16753 14.7917 2.1797 15.0006 2.1797L15.0007 2.17966ZM0.00640557 10.1953C0.00640557 14.7689 -0.0880639 17.7297 0.996457 22.191C1.69933 25.0824 2.77715 26.9663 4.38861 29.1999C5.59069 30.8661 8.12464 32.9838 9.97926 33.9613C10.4789 34.2247 10.9346 34.4827 11.4694 34.7583C12.5004 35.2896 14.0839 36 15.2758 36C15.7573 36 18.1282 34.962 18.5783 34.7354C19.6132 34.2143 20.5419 33.6763 21.4661 33.0468C25.8358 30.0704 28.5395 25.54 29.4259 20.3011C30.0687 16.5019 29.9949 14.0464 29.9949 10.1953C29.9949 9.94186 30.0045 9.67043 29.9972 9.41957C29.9788 8.79136 29.8823 7.87294 29.696 7.3368C29.3033 6.20682 28.3956 5.42187 27.3226 5.05211C26.4765 4.76054 24.2548 4.80898 22.0935 4.06947L19.9058 3.14182C18.8971 2.58784 18.0245 1.91963 17.1531 1.17456C16.264 0.414306 16.1377 0 14.7943 0C13.7065 0 12.6212 1.59808 11.0848 2.53601C10.7766 2.72412 10.4734 2.92549 10.1398 3.11685L7.95928 4.05184C5.09109 5.02987 3.27217 4.48326 1.65919 5.55681C0.301647 6.46036 0.0869083 7.82053 0.00605288 9.3512C-0.00789623 9.61511 0.00638794 9.92612 0.00638794 10.1953L0.00640557 10.1953Z" fill="white"/>
<path fill-rule="evenodd" clip-rule="evenodd" d="M15.3447 24.8202C14.0837 24.8202 13.2583 24.7393 12.134 24.1648C11.3603 23.7694 10.8503 23.4256 10.2718 22.8342C9.24236 21.7819 8.32898 19.9828 8.32898 18.3515C8.32898 16.2216 8.86795 14.6091 10.3061 13.1304C12.8512 10.5134 17.1411 10.5194 19.7297 13.1656C22.3184 15.8119 22.3242 20.1973 19.7642 22.7991C19.1749 23.3981 18.6985 23.7375 17.913 24.1411C17.287 24.4627 16.2487 24.8202 15.3447 24.8202ZM6.19678 17.9999C6.19678 22.9261 10.1819 26.9999 15.0007 26.9999C22.6841 26.9999 26.8175 17.3808 21.2082 11.6542C18.5092 8.89872 14.0167 8.11377 10.6635 10.1911L9.35936 11.1079C7.47549 12.5641 6.19679 15.4475 6.19679 17.9999L6.19678 17.9999Z" fill="white"/>
<path fill-rule="evenodd" clip-rule="evenodd" d="M13.4188 19.3359C13.1741 18.9624 12.2255 17.9297 11.6305 17.9297C10.9987 17.9297 9.82593 18.7302 11.2005 20.127C11.6882 20.6226 12.8035 21.9375 13.35 21.9375C14.0051 21.9375 14.0619 21.7373 14.5365 21.252L18.801 16.8927C19.144 16.5444 19.3936 16.3537 19.279 15.741C19.1868 15.2483 18.7937 14.9062 18.2335 14.9062C17.6057 14.9062 17.2171 15.4882 16.875 15.8379L13.4188 19.3359H13.4188Z" fill="white"/>
</svg>
