<svg width="763" height="1200" viewBox="0 0 763 1200" fill="none" xmlns="http://www.w3.org/2000/svg">
<path d="M864.68 409.737C882.979 428.036 882.979 457.698 864.68 475.988L550.414 790.263C532.115 808.553 502.462 808.553 484.163 790.263L334.56 640.651C316.261 622.361 316.261 592.699 334.56 574.409C352.85 556.11 382.512 556.11 400.802 574.409L517.284 690.891L798.429 409.737C816.728 391.447 846.391 391.447 864.68 409.737ZM1199.24 600C1199.24 931.44 931.014 1199.62 599.62 1199.62C268.18 1199.62 0 931.394 0 600C0 268.56 268.226 0.379883 599.62 0.379883C931.06 0.379883 1199.24 268.606 1199.24 600ZM1105.55 600C1105.55 320.346 879.237 94.0705 599.62 94.0705C319.966 94.0705 93.6906 320.383 93.6906 600C93.6906 879.654 320.003 1105.93 599.62 1105.93C879.274 1105.93 1105.55 879.617 1105.55 600Z" fill="url(#paint0_linear_632_109)"/>
<defs>
<linearGradient id="paint0_linear_632_109" x1="599.62" y1="0.379883" x2="599.62" y2="1199.62" gradientUnits="userSpaceOnUse">
<stop stop-color="#8EA7E1"/>
<stop offset="1" stop-color="#7B8AB4" stop-opacity="0"/>
</linearGradient>
</defs>
</svg>
