<svg width="45" height="46" viewBox="0 0 45 46" fill="none" xmlns="http://www.w3.org/2000/svg">
<g clip-path="url(#clip0_632_188)">
<path d="M27.5897 18.9997L20.8284 25.3858L17.5835 22.0475C17.2238 21.6771 16.6315 21.6687 16.2615 22.0285C15.8911 22.3885 15.8827 22.9805 16.2424 23.3509L20.1343 27.346C20.4958 27.7098 21.0801 27.7222 21.4567 27.3739L28.8935 20.3595C29.0741 20.1891 29.1796 19.954 29.1865 19.7059C29.1935 19.4579 29.1015 19.2173 28.9308 19.037C28.5689 18.6608 27.9722 18.6443 27.5897 18.9997Z" fill="white"/>
<path d="M22.5725 9.17139C14.8452 9.17139 8.56201 15.4546 8.56201 23.1819C8.56201 30.9095 14.8452 37.1927 22.5725 37.1927C30.3001 37.1927 36.5833 30.9095 36.5833 23.1819C36.5833 15.4546 30.3001 9.17139 22.5725 9.17139ZM22.5725 35.3171C15.8768 35.3171 10.4376 29.8684 10.4376 23.1819C10.4376 16.4953 15.8768 11.047 22.5725 11.047C29.2748 11.047 34.7078 16.4799 34.7078 23.1819C34.7078 29.8838 29.2748 35.3171 22.5725 35.3171Z" fill="white"/>
<path d="M41.8537 18.0242L42.1632 12.463C42.1849 12.0897 41.9819 11.7391 41.6475 11.5721L36.6958 9.06826L34.192 4.11664C34.0217 3.78512 33.6733 3.58327 33.3011 3.60086L27.7304 3.90124L23.0883 0.834368C22.7755 0.628127 22.3699 0.628127 22.0567 0.834368L17.4147 3.90124L11.8538 3.5917C11.4802 3.56972 11.13 3.77266 10.9629 4.10749L8.45874 9.05911L3.50748 11.5629C3.17559 11.7329 2.97411 12.0813 2.99169 12.4538L3.30087 18.015L0.234362 22.6571C0.0281211 22.9699 0.0281211 23.3755 0.234362 23.6887L3.29172 28.3399L2.98217 33.9011C2.96056 34.2744 3.16313 34.625 3.49796 34.792L8.44958 37.2958L10.9534 42.2475C11.1234 42.5793 11.4718 42.7808 11.8443 42.7632L17.4055 42.4537L22.0476 45.5202C22.3586 45.733 22.7681 45.733 23.0792 45.5202L27.7212 42.4537L33.2824 42.7632C33.6557 42.7849 34.0059 42.5819 34.1733 42.2475L36.6772 37.2958L41.6288 34.792C41.9603 34.6217 42.1622 34.2737 42.1446 33.9011L41.835 28.3399L44.9015 23.6978C45.1078 23.385 45.1078 22.9791 44.9015 22.6663L41.8537 18.0242ZM40.1093 27.571C39.995 27.7388 39.9419 27.9406 39.9594 28.1432L40.2499 33.404L35.5705 35.7672C35.3921 35.8565 35.2474 36.0016 35.158 36.18L32.7945 40.8595L27.5337 40.569C27.3322 40.5616 27.1333 40.6136 26.9615 40.7188L22.5725 43.6168L18.1839 40.7188C18.0316 40.6158 17.8521 40.5602 17.6682 40.5594H17.6213L12.3601 40.8503L9.99694 36.1705C9.90755 35.9921 9.76286 35.8474 9.58409 35.758L4.89512 33.404L5.18598 28.1432C5.19331 27.9417 5.14093 27.7428 5.03579 27.571L2.13816 23.1821L5.03579 18.7931C5.15045 18.6257 5.20357 18.4235 5.18598 18.2213L4.89512 12.9601L9.57493 10.5969C9.75333 10.5076 9.89803 10.3629 9.98741 10.1845L12.3506 5.50465L17.6117 5.79551C17.8129 5.80247 18.0118 5.75046 18.1839 5.64532L22.5725 2.74769L26.9615 5.64532C27.1292 5.75998 27.3315 5.8131 27.5337 5.79551L32.7945 5.50465L35.158 10.1845C35.2474 10.3629 35.3921 10.5076 35.5705 10.5969L40.2499 12.9601L39.9594 18.2213C39.9521 18.4224 40.0045 18.6213 40.1093 18.7931L43.0073 23.1821L40.1093 27.571Z" fill="white"/>
</g>
<defs>
<clipPath id="clip0_632_188">
<rect width="45" height="45" fill="white" transform="translate(0 0.679688)"/>
</clipPath>
</defs>
</svg>
