<svg width="45" height="46" viewBox="0 0 45 46" fill="none" xmlns="http://www.w3.org/2000/svg">
<g clip-path="url(#clip0_632_192)">
<path d="M34.9849 16.2285C34.8297 15.7512 34.4171 15.4035 33.9206 15.3314L27.7765 14.4387L25.0285 8.87104C24.8064 8.42094 24.3481 8.13599 23.8461 8.13599C23.3442 8.13599 22.8862 8.42094 22.6641 8.87104L19.9161 14.4387L13.772 15.3314C13.2752 15.4035 12.8629 15.7512 12.7077 16.2285C12.5525 16.706 12.6819 17.2299 13.0411 17.5801L17.4871 21.9142L16.4375 28.0336C16.3527 28.5284 16.556 29.0282 16.9621 29.3232C17.368 29.6181 17.9063 29.6569 18.3505 29.4234L23.8461 26.5343L29.3417 29.4234C29.5346 29.525 29.7455 29.5752 29.9552 29.5752C29.9569 29.5752 29.9587 29.5752 29.9604 29.5752C30.6868 29.5731 31.2753 28.9836 31.2753 28.2568C31.2753 28.1555 31.264 28.057 31.2423 27.9622L30.2052 21.9142L34.6512 17.5801C35.0107 17.2299 35.1397 16.706 34.9849 16.2285ZM27.8682 20.5097C27.5575 20.8125 27.4157 21.2489 27.4891 21.6767L28.2043 25.8467L24.4596 23.8777C24.2674 23.7768 24.0569 23.7263 23.8461 23.7263C23.6357 23.7263 23.4249 23.7768 23.2326 23.8777L19.488 25.8467L20.2031 21.6767C20.2766 21.2489 20.1348 20.8125 19.8241 20.5097L16.7946 17.5568L20.9811 16.9484C21.4106 16.8859 21.7817 16.6164 21.974 16.2271L23.8461 12.4334L25.7186 16.2271C25.9109 16.6164 26.282 16.8859 26.7115 16.9484L30.898 17.5568L27.8682 20.5097Z" fill="white"/>
<path d="M23.8462 0.591797C13.85 0.591797 5.70363 8.66333 5.58381 18.6317L3.40955 24.9733C2.81251 26.7153 2.85165 28.2486 3.51701 29.1803C3.91595 29.7386 4.53153 30.0586 5.2065 30.0586H5.58244V32.2706C5.58244 34.9441 7.75774 37.119 10.4312 37.119C11.651 37.119 12.6432 38.1116 12.6432 39.331V40.7431C12.6432 43.4166 14.8182 45.5919 17.4916 45.5919H27.3766C30.0501 45.5919 32.2254 43.4166 32.2254 40.7431V35.0845C35.0255 33.6374 37.4041 31.4923 39.1396 28.8405C41.0828 25.871 42.11 22.4186 42.11 18.8552C42.11 8.78487 33.9169 0.591797 23.8462 0.591797ZM30.3567 33.063C29.8884 33.2779 29.5883 33.7462 29.5883 34.2612V40.7431C29.5883 41.963 28.5961 42.9552 27.3766 42.9552H17.4916C16.2722 42.9552 15.28 41.963 15.28 40.7431V39.331C15.28 36.6576 13.1047 34.4826 10.4312 34.4826C9.21137 34.4826 8.21917 33.4901 8.21917 32.2706V28.7402C8.21917 28.0124 7.62899 27.4218 6.9008 27.4218H5.63222C5.60991 27.1276 5.64149 26.5941 5.90379 25.8285L8.1481 19.283C8.19513 19.1453 8.21917 19.0008 8.21917 18.8556C8.21917 10.2388 15.2295 3.22852 23.8462 3.22852C32.463 3.22852 39.4733 10.2388 39.4733 18.8556C39.4733 24.9437 35.8948 30.5207 30.3567 33.063Z" fill="white"/>
</g>
<defs>
<clipPath id="clip0_632_192">
<rect width="45" height="45" fill="white" transform="translate(0 0.679688)"/>
</clipPath>
</defs>
</svg>
