<svg width="70" height="72" viewBox="0 0 70 72" fill="none" xmlns="http://www.w3.org/2000/svg">
<g clip-path="url(#clip0_629_20)">
<path d="M35.0088 0.839111H34.9912C15.6931 0.839111 0 16.7609 0 36.3391C0 44.1047 2.4675 51.3024 6.66313 57.1465L2.30125 70.3348L15.7544 65.9727C21.2887 69.6914 27.8906 71.8391 35.0088 71.8391C54.3069 71.8391 70 55.9129 70 36.3391C70 16.7653 54.3069 0.839111 35.0088 0.839111Z" fill="#4CAF50"/>
<path d="M55.3743 50.9695C54.53 53.388 51.1787 55.3937 48.5056 55.9795C46.6768 56.3744 44.2881 56.6895 36.2468 53.3081C25.9612 48.986 19.3375 38.3848 18.8212 37.697C18.3269 37.0092 14.665 32.0836 14.665 26.9893C14.665 21.8951 17.2156 19.4145 18.2437 18.3495C19.0881 17.4753 20.4837 17.0759 21.8225 17.0759C22.2556 17.0759 22.645 17.0981 22.995 17.1159C24.0231 17.1602 24.5394 17.2224 25.2175 18.8687C26.0619 20.9321 28.1181 26.0264 28.3631 26.55C28.6125 27.0736 28.8619 27.7836 28.5119 28.4714C28.1837 29.1814 27.895 29.4965 27.3787 30.1C26.8625 30.7035 26.3725 31.165 25.8562 31.8129C25.3837 32.3764 24.85 32.9799 25.445 34.0227C26.04 35.0434 28.0962 38.4469 31.1237 41.1804C35.0306 44.7082 38.1981 45.8354 39.3312 46.3146C40.1756 46.6696 41.1818 46.5853 41.7987 45.9197C42.5818 45.0632 43.5487 43.6432 44.5331 42.2454C45.2331 41.2426 46.1168 41.1183 47.0443 41.4733C47.9893 41.8061 52.99 44.3133 54.0181 44.8325C55.0462 45.3561 55.7243 45.6046 55.9737 46.0439C56.2187 46.4832 56.2187 48.5467 55.3743 50.9695Z" fill="#FAFAFA"/>
</g>
<defs>
<clipPath id="clip0_629_20">
<rect width="70" height="71" fill="white" transform="translate(0 0.839111)"/>
</clipPath>
</defs>
</svg>
